<?xml version="1.0" encoding="UTF-8" standalone="no"?>
<!DOCTYPE svg PUBLIC "-//W3C//DTD SVG 1.1//EN"
 "http://www.w3.org/Graphics/SVG/1.1/DTD/svg11.dtd">
<!-- Generated by graphviz version 2.42.3 (0)
 -->
<!-- Title: D Pages: 1 -->
<svg width="1634pt" height="494pt"
 viewBox="0.00 0.00 1634.00 494.00" xmlns="http://www.w3.org/2000/svg" xmlns:xlink="http://www.w3.org/1999/xlink">
<g id="graph0" class="graph" transform="scale(1 1) rotate(0) translate(4 490)">
<title>D</title>
<polygon fill="white" stroke="transparent" points="-4,4 -4,-490 1630,-490 1630,4 -4,4"/>
<g id="clust1" class="cluster">
<title>cluster_OneInfra</title>
<polygon fill="none" stroke="black" points="8,-8 8,-478 910,-478 910,-8 8,-8"/>
<text text-anchor="middle" x="459" y="-462.8" font-family="Times,serif" font-size="14.00">oneinfra</text>
</g>
<g id="clust2" class="cluster">
<title>cluster_Components_Def</title>
<polygon fill="none" stroke="black" points="320,-88 320,-447 800,-447 800,-88 320,-88"/>
<text text-anchor="middle" x="560" y="-431.8" font-family="Times,serif" font-size="14.00">Components</text>
</g>
<g id="clust3" class="cluster">
<title>cluster_Clusters_Def</title>
<polygon fill="none" stroke="black" points="212,-160 212,-447 312,-447 312,-160 212,-160"/>
<text text-anchor="middle" x="262" y="-431.8" font-family="Times,serif" font-size="14.00">Clusters</text>
</g>
<g id="clust4" class="cluster">
<title>cluster_Hypervisors_Def</title>
<polygon fill="none" stroke="black" points="16,-16 16,-447 204,-447 204,-16 16,-16"/>
<text text-anchor="middle" x="110" y="-431.8" font-family="Times,serif" font-size="14.00">Hypervisors</text>
</g>
<g id="clust5" class="cluster">
<title>cluster_PublicHV1</title>
<polygon fill="gold" stroke="black" points="1150,-152 1150,-372 1386,-372 1386,-152 1150,-152"/>
<text text-anchor="middle" x="1268" y="-356.8" font-family="Times,serif" font-size="14.00">Public Hypervisor 1</text>
</g>
<g id="clust6" class="cluster">
<title>cluster_PublicHV1_Pods</title>
<polygon fill="gold" stroke="black" points="1222,-160 1222,-341 1378,-341 1378,-160 1222,-160"/>
<text text-anchor="middle" x="1300" y="-325.8" font-family="Times,serif" font-size="14.00">Pods</text>
</g>
<g id="clust7" class="cluster">
<title>cluster_PrivateHV1</title>
<polygon fill="azure" stroke="black" points="918,-8 918,-266 1142,-266 1142,-8 918,-8"/>
<text text-anchor="middle" x="1030" y="-250.8" font-family="Times,serif" font-size="14.00">Private Hypervisor 1</text>
</g>
<g id="clust8" class="cluster">
<title>cluster_PrivateHV1_Pods</title>
<polygon fill="azure" stroke="black" points="990,-16 990,-235 1134,-235 1134,-16 990,-16"/>
<text text-anchor="middle" x="1062" y="-219.8" font-family="Times,serif" font-size="14.00">Pods</text>
</g>
<g id="clust9" class="cluster">
<title>cluster_PrivateHV2</title>
<polygon fill="beige" stroke="black" points="1394,-8 1394,-266 1618,-266 1618,-8 1394,-8"/>
<text text-anchor="middle" x="1506" y="-250.8" font-family="Times,serif" font-size="14.00">Private Hypervisor 2</text>
</g>
<g id="clust10" class="cluster">
<title>cluster_PrivateHV2_Pods</title>
<polygon fill="beige" stroke="black" points="1402,-16 1402,-235 1546,-235 1546,-16 1402,-16"/>
<text text-anchor="middle" x="1474" y="-219.8" font-family="Times,serif" font-size="14.00">Pods</text>
</g>
<!-- ClusterN_ControlPlaneIngress -->
<g id="node1" class="node">
<title>ClusterN_ControlPlaneIngress</title>
<polygon fill="none" stroke="black" points="786,-204 620,-204 620,-168 792,-168 792,-198 786,-204"/>
<polyline fill="none" stroke="black" points="786,-204 786,-198 "/>
<polyline fill="none" stroke="black" points="792,-198 786,-198 "/>
<text text-anchor="middle" x="706" y="-182.3" font-family="Times,serif" font-size="14.00">Control Plane Ingress</text>
</g>
<!-- Cluster2_ControlPlaneIngress -->
<g id="node2" class="node">
<title>Cluster2_ControlPlaneIngress</title>
<polygon fill="darkorange" stroke="black" points="786,-310 620,-310 620,-274 792,-274 792,-304 786,-310"/>
<polyline fill="none" stroke="black" points="786,-310 786,-304 "/>
<polyline fill="none" stroke="black" points="792,-304 786,-304 "/>
<text text-anchor="middle" x="706" y="-288.3" font-family="Times,serif" font-size="14.00">Control Plane Ingress</text>
</g>
<!-- Cluster2_ControlPlaneIngress&#45;&gt;ClusterN_ControlPlaneIngress -->
<!-- Cluster1_ControlPlaneIngress -->
<g id="node3" class="node">
<title>Cluster1_ControlPlaneIngress</title>
<polygon fill="aquamarine" stroke="black" points="786,-416 620,-416 620,-380 792,-380 792,-410 786,-416"/>
<polyline fill="none" stroke="black" points="786,-416 786,-410 "/>
<polyline fill="none" stroke="black" points="792,-410 786,-410 "/>
<text text-anchor="middle" x="706" y="-394.3" font-family="Times,serif" font-size="14.00">Control Plane Ingress</text>
</g>
<!-- Cluster1_ControlPlaneIngress&#45;&gt;Cluster2_ControlPlaneIngress -->
<!-- Cluster1_ControlPlane1 -->
<g id="node4" class="node">
<title>Cluster1_ControlPlane1</title>
<polygon fill="aquamarine" stroke="black" points="596,-416 474,-416 474,-380 602,-380 602,-410 596,-416"/>
<polyline fill="none" stroke="black" points="596,-416 596,-410 "/>
<polyline fill="none" stroke="black" points="602,-410 596,-410 "/>
<text text-anchor="middle" x="538" y="-394.3" font-family="Times,serif" font-size="14.00">Control Plane 1</text>
</g>
<!-- Cluster1_ControlPlane2 -->
<g id="node5" class="node">
<title>Cluster1_ControlPlane2</title>
<polygon fill="aquamarine" stroke="black" points="596,-310 474,-310 474,-274 602,-274 602,-304 596,-310"/>
<polyline fill="none" stroke="black" points="596,-310 596,-304 "/>
<polyline fill="none" stroke="black" points="602,-304 596,-304 "/>
<text text-anchor="middle" x="538" y="-288.3" font-family="Times,serif" font-size="14.00">Control Plane 2</text>
</g>
<!-- Cluster1_ControlPlane1&#45;&gt;Cluster1_ControlPlane2 -->
<!-- Cluster1_ControlPlane1&#45;&gt;Cluster1_ControlPlane2 -->
<g id="edge5" class="edge">
<title>Cluster1_ControlPlane1&#45;&gt;Cluster1_ControlPlane2</title>
<path fill="none" stroke="black" stroke-dasharray="1,5" d="M543.17,-379.83C545.28,-360.56 545.28,-329.48 543.17,-310.2"/>
</g>
<!-- Cluster1_ControlPlane3 -->
<g id="node6" class="node">
<title>Cluster1_ControlPlane3</title>
<polygon fill="aquamarine" stroke="black" points="596,-204 474,-204 474,-168 602,-168 602,-198 596,-204"/>
<polyline fill="none" stroke="black" points="596,-204 596,-198 "/>
<polyline fill="none" stroke="black" points="602,-198 596,-198 "/>
<text text-anchor="middle" x="538" y="-182.3" font-family="Times,serif" font-size="14.00">Control Plane 3</text>
</g>
<!-- Cluster1_ControlPlane2&#45;&gt;Cluster1_ControlPlane3 -->
<!-- Cluster1_ControlPlane2&#45;&gt;Cluster1_ControlPlane3 -->
<g id="edge6" class="edge">
<title>Cluster1_ControlPlane2&#45;&gt;Cluster1_ControlPlane3</title>
<path fill="none" stroke="black" stroke-dasharray="1,5" d="M543.17,-273.83C545.28,-254.56 545.28,-223.48 543.17,-204.2"/>
</g>
<!-- Cluster1_ControlPlaneN -->
<g id="node7" class="node">
<title>Cluster1_ControlPlaneN</title>
<polygon fill="aquamarine" stroke="black" points="598,-132 474,-132 474,-96 604,-96 604,-126 598,-132"/>
<polyline fill="none" stroke="black" points="598,-132 598,-126 "/>
<polyline fill="none" stroke="black" points="604,-126 598,-126 "/>
<text text-anchor="middle" x="539" y="-110.3" font-family="Times,serif" font-size="14.00">Control Plane Q</text>
</g>
<!-- Cluster1_ControlPlane3&#45;&gt;Cluster1_ControlPlaneN -->
<g id="edge7" class="edge">
<title>Cluster1_ControlPlane3&#45;&gt;Cluster1_ControlPlaneN</title>
<path fill="none" stroke="black" stroke-dasharray="1,5" d="M538.25,-167.7C538.4,-156.85 538.6,-142.92 538.76,-132.1"/>
</g>
<!-- Cluster2_ControlPlane1 -->
<g id="node8" class="node">
<title>Cluster2_ControlPlane1</title>
<polygon fill="darkorange" stroke="black" points="450,-416 328,-416 328,-380 456,-380 456,-410 450,-416"/>
<polyline fill="none" stroke="black" points="450,-416 450,-410 "/>
<polyline fill="none" stroke="black" points="456,-410 450,-410 "/>
<text text-anchor="middle" x="392" y="-394.3" font-family="Times,serif" font-size="14.00">Control Plane 1</text>
</g>
<!-- Cluster2_ControlPlane2 -->
<g id="node9" class="node">
<title>Cluster2_ControlPlane2</title>
<polygon fill="darkorange" stroke="black" points="450,-310 328,-310 328,-274 456,-274 456,-304 450,-310"/>
<polyline fill="none" stroke="black" points="450,-310 450,-304 "/>
<polyline fill="none" stroke="black" points="456,-304 450,-304 "/>
<text text-anchor="middle" x="392" y="-288.3" font-family="Times,serif" font-size="14.00">Control Plane 2</text>
</g>
<!-- Cluster2_ControlPlane1&#45;&gt;Cluster2_ControlPlane2 -->
<!-- Cluster2_ControlPlane1&#45;&gt;Cluster2_ControlPlane2 -->
<g id="edge10" class="edge">
<title>Cluster2_ControlPlane1&#45;&gt;Cluster2_ControlPlane2</title>
<path fill="none" stroke="black" stroke-dasharray="1,5" d="M397.17,-379.83C399.28,-360.56 399.28,-329.48 397.17,-310.2"/>
</g>
<!-- Cluster2_ControlPlane3 -->
<g id="node10" class="node">
<title>Cluster2_ControlPlane3</title>
<polygon fill="darkorange" stroke="black" points="450,-204 328,-204 328,-168 456,-168 456,-198 450,-204"/>
<polyline fill="none" stroke="black" points="450,-204 450,-198 "/>
<polyline fill="none" stroke="black" points="456,-198 450,-198 "/>
<text text-anchor="middle" x="392" y="-182.3" font-family="Times,serif" font-size="14.00">Control Plane 3</text>
</g>
<!-- Cluster2_ControlPlane2&#45;&gt;Cluster2_ControlPlane3 -->
<!-- Cluster2_ControlPlane2&#45;&gt;Cluster2_ControlPlane3 -->
<g id="edge11" class="edge">
<title>Cluster2_ControlPlane2&#45;&gt;Cluster2_ControlPlane3</title>
<path fill="none" stroke="black" stroke-dasharray="1,5" d="M397.17,-273.83C399.28,-254.56 399.28,-223.48 397.17,-204.2"/>
</g>
<!-- Cluster2_ControlPlaneN -->
<g id="node11" class="node">
<title>Cluster2_ControlPlaneN</title>
<polygon fill="darkorange" stroke="black" points="450,-132 328,-132 328,-96 456,-96 456,-126 450,-132"/>
<polyline fill="none" stroke="black" points="450,-132 450,-126 "/>
<polyline fill="none" stroke="black" points="456,-126 450,-126 "/>
<text text-anchor="middle" x="392" y="-110.3" font-family="Times,serif" font-size="14.00">Control Plane P</text>
</g>
<!-- Cluster2_ControlPlane3&#45;&gt;Cluster2_ControlPlaneN -->
<g id="edge12" class="edge">
<title>Cluster2_ControlPlane3&#45;&gt;Cluster2_ControlPlaneN</title>
<path fill="none" stroke="black" stroke-dasharray="1,5" d="M392,-167.7C392,-156.85 392,-142.92 392,-132.1"/>
</g>
<!-- Cluster1_Def -->
<g id="node12" class="node">
<title>Cluster1_Def</title>
<polygon fill="aquamarine" stroke="black" points="297.5,-416 220.5,-416 220.5,-380 303.5,-380 303.5,-410 297.5,-416"/>
<polyline fill="none" stroke="black" points="297.5,-416 297.5,-410 "/>
<polyline fill="none" stroke="black" points="303.5,-410 297.5,-410 "/>
<text text-anchor="middle" x="262" y="-394.3" font-family="Times,serif" font-size="14.00">Cluster 1</text>
</g>
<!-- Cluster2_Def -->
<g id="node13" class="node">
<title>Cluster2_Def</title>
<polygon fill="darkorange" stroke="black" points="297.5,-310 220.5,-310 220.5,-274 303.5,-274 303.5,-304 297.5,-310"/>
<polyline fill="none" stroke="black" points="297.5,-310 297.5,-304 "/>
<polyline fill="none" stroke="black" points="303.5,-304 297.5,-304 "/>
<text text-anchor="middle" x="262" y="-288.3" font-family="Times,serif" font-size="14.00">Cluster 2</text>
</g>
<!-- Cluster1_Def&#45;&gt;Cluster2_Def -->
<g id="edge13" class="edge">
<title>Cluster1_Def&#45;&gt;Cluster2_Def</title>
<path fill="none" stroke="black" stroke-dasharray="1,5" d="M262,-379.83C262,-360.56 262,-329.48 262,-310.2"/>
</g>
<!-- ClusterN_Def -->
<g id="node14" class="node">
<title>ClusterN_Def</title>
<polygon fill="none" stroke="black" points="298,-204 220,-204 220,-168 304,-168 304,-198 298,-204"/>
<polyline fill="none" stroke="black" points="298,-204 298,-198 "/>
<polyline fill="none" stroke="black" points="304,-198 298,-198 "/>
<text text-anchor="middle" x="262" y="-182.3" font-family="Times,serif" font-size="14.00">Cluster C</text>
</g>
<!-- Cluster2_Def&#45;&gt;ClusterN_Def -->
<g id="edge14" class="edge">
<title>Cluster2_Def&#45;&gt;ClusterN_Def</title>
<path fill="none" stroke="black" stroke-dasharray="1,5" d="M262,-273.83C262,-254.56 262,-223.48 262,-204.2"/>
</g>
<!-- PublicHV1_Def -->
<g id="node15" class="node">
<title>PublicHV1_Def</title>
<polygon fill="gold" stroke="black" points="183,-416 31,-416 31,-380 189,-380 189,-410 183,-416"/>
<polyline fill="none" stroke="black" points="183,-416 183,-410 "/>
<polyline fill="none" stroke="black" points="189,-410 183,-410 "/>
<text text-anchor="middle" x="110" y="-394.3" font-family="Times,serif" font-size="14.00">Public Hypervisor 1</text>
</g>
<!-- PublicHVN_Def -->
<g id="node16" class="node">
<title>PublicHVN_Def</title>
<polygon fill="none" stroke="black" points="184.5,-310 29.5,-310 29.5,-274 190.5,-274 190.5,-304 184.5,-310"/>
<polyline fill="none" stroke="black" points="184.5,-310 184.5,-304 "/>
<polyline fill="none" stroke="black" points="190.5,-304 184.5,-304 "/>
<text text-anchor="middle" x="110" y="-288.3" font-family="Times,serif" font-size="14.00">Public Hypervisor N</text>
</g>
<!-- PublicHV1_Def&#45;&gt;PublicHVN_Def -->
<g id="edge15" class="edge">
<title>PublicHV1_Def&#45;&gt;PublicHVN_Def</title>
<path fill="none" stroke="black" stroke-dasharray="1,5" d="M110,-379.83C110,-360.56 110,-329.48 110,-310.2"/>
</g>
<!-- PrivateHV1_Def -->
<g id="node17" class="node">
<title>PrivateHV1_Def</title>
<polygon fill="azure" stroke="black" points="187,-204 27,-204 27,-168 193,-168 193,-198 187,-204"/>
<polyline fill="none" stroke="black" points="187,-204 187,-198 "/>
<polyline fill="none" stroke="black" points="193,-198 187,-198 "/>
<text text-anchor="middle" x="110" y="-182.3" font-family="Times,serif" font-size="14.00">Private Hypervisor 1</text>
</g>
<!-- PublicHVN_Def&#45;&gt;PrivateHV1_Def -->
<g id="edge16" class="edge">
<title>PublicHVN_Def&#45;&gt;PrivateHV1_Def</title>
<path fill="none" stroke="black" stroke-dasharray="1,5" d="M110,-273.83C110,-254.56 110,-223.48 110,-204.2"/>
</g>
<!-- PrivateHV2_Def -->
<g id="node18" class="node">
<title>PrivateHV2_Def</title>
<polygon fill="beige" stroke="black" points="187,-132 27,-132 27,-96 193,-96 193,-126 187,-132"/>
<polyline fill="none" stroke="black" points="187,-132 187,-126 "/>
<polyline fill="none" stroke="black" points="193,-126 187,-126 "/>
<text text-anchor="middle" x="110" y="-110.3" font-family="Times,serif" font-size="14.00">Private Hypervisor 2</text>
</g>
<!-- PrivateHV1_Def&#45;&gt;PrivateHV2_Def -->
<g id="edge17" class="edge">
<title>PrivateHV1_Def&#45;&gt;PrivateHV2_Def</title>
<path fill="none" stroke="black" stroke-dasharray="1,5" d="M110,-167.7C110,-156.85 110,-142.92 110,-132.1"/>
</g>
<!-- PrivateHVN_Def -->
<g id="node19" class="node">
<title>PrivateHVN_Def</title>
<polygon fill="none" stroke="black" points="189.5,-60 24.5,-60 24.5,-24 195.5,-24 195.5,-54 189.5,-60"/>
<polyline fill="none" stroke="black" points="189.5,-60 189.5,-54 "/>
<polyline fill="none" stroke="black" points="195.5,-54 189.5,-54 "/>
<text text-anchor="middle" x="110" y="-38.3" font-family="Times,serif" font-size="14.00">Private Hypervisor M</text>
</g>
<!-- PrivateHV2_Def&#45;&gt;PrivateHVN_Def -->
<g id="edge18" class="edge">
<title>PrivateHV2_Def&#45;&gt;PrivateHVN_Def</title>
<path fill="none" stroke="black" stroke-dasharray="1,5" d="M110,-95.7C110,-84.85 110,-70.92 110,-60.1"/>
</g>
<!-- Reconciler -->
<g id="node20" class="node">
<title>Reconciler</title>
<polygon fill="none" stroke="black" points="902,-416 810,-416 810,-412 806,-412 806,-408 810,-408 810,-388 806,-388 806,-384 810,-384 810,-380 902,-380 902,-416"/>
<polyline fill="none" stroke="black" points="810,-412 814,-412 814,-408 810,-408 "/>
<polyline fill="none" stroke="black" points="810,-388 814,-388 814,-384 810,-384 "/>
<text text-anchor="middle" x="856" y="-394.3" font-family="Times,serif" font-size="14.00">Reconciler</text>
</g>
<!-- PublicHV1_CRI -->
<g id="node21" class="node">
<title>PublicHV1_CRI</title>
<polygon fill="none" stroke="black" points="1212,-310 1158,-310 1158,-306 1154,-306 1154,-302 1158,-302 1158,-282 1154,-282 1154,-278 1158,-278 1158,-274 1212,-274 1212,-310"/>
<polyline fill="none" stroke="black" points="1158,-306 1162,-306 1162,-302 1158,-302 "/>
<polyline fill="none" stroke="black" points="1158,-282 1162,-282 1162,-278 1158,-278 "/>
<text text-anchor="middle" x="1185" y="-288.3" font-family="Times,serif" font-size="14.00">CRI</text>
</g>
<!-- Reconciler&#45;&gt;PublicHV1_CRI -->
<g id="edge20" class="edge">
<title>Reconciler&#45;&gt;PublicHV1_CRI</title>
<path fill="none" stroke="red" stroke-width="2" d="M902.09,-382.43C967.96,-361.61 1087.71,-323.76 1148.09,-304.67"/>
<polygon fill="red" stroke="red" stroke-width="2" points="1149.47,-307.9 1157.95,-301.55 1147.36,-301.23 1149.47,-307.9"/>
</g>
<!-- PrivateHV1_CRI -->
<g id="node24" class="node">
<title>PrivateHV1_CRI</title>
<polygon fill="none" stroke="black" points="980,-204 926,-204 926,-200 922,-200 922,-196 926,-196 926,-176 922,-176 922,-172 926,-172 926,-168 980,-168 980,-204"/>
<polyline fill="none" stroke="black" points="926,-200 930,-200 930,-196 926,-196 "/>
<polyline fill="none" stroke="black" points="926,-176 930,-176 930,-172 926,-172 "/>
<text text-anchor="middle" x="953" y="-182.3" font-family="Times,serif" font-size="14.00">CRI</text>
</g>
<!-- Reconciler&#45;&gt;PrivateHV1_CRI -->
<g id="edge23" class="edge">
<title>Reconciler&#45;&gt;PrivateHV1_CRI</title>
<path fill="none" stroke="red" stroke-width="2" d="M863.94,-379.81C880.89,-343.11 920.72,-256.88 940.87,-213.25"/>
<polygon fill="red" stroke="red" stroke-width="2" points="944.07,-214.67 945.09,-204.13 937.72,-211.74 944.07,-214.67"/>
</g>
<!-- PrivateHV2_CRI -->
<g id="node28" class="node">
<title>PrivateHV2_CRI</title>
<polygon fill="none" stroke="black" points="1610,-204 1556,-204 1556,-200 1552,-200 1552,-196 1556,-196 1556,-176 1552,-176 1552,-172 1556,-172 1556,-168 1610,-168 1610,-204"/>
<polyline fill="none" stroke="black" points="1556,-200 1560,-200 1560,-196 1556,-196 "/>
<polyline fill="none" stroke="black" points="1556,-176 1560,-176 1560,-172 1556,-172 "/>
<text text-anchor="middle" x="1583" y="-182.3" font-family="Times,serif" font-size="14.00">CRI</text>
</g>
<!-- Reconciler&#45;&gt;PrivateHV2_CRI -->
<g id="edge26" class="edge">
<title>Reconciler&#45;&gt;PrivateHV2_CRI</title>
<path fill="none" stroke="red" stroke-width="2" d="M902.34,-396.15C1022.34,-393.75 1336.98,-386.18 1382,-372 1466.21,-345.47 1493,-333.42 1550,-266 1562.67,-251.01 1571.05,-230.46 1576.2,-214.08"/>
<polygon fill="red" stroke="red" stroke-width="2" points="1579.69,-214.59 1579.12,-204.01 1572.97,-212.64 1579.69,-214.59"/>
</g>
<!-- Cluster1_Ingress -->
<g id="node22" class="node">
<title>Cluster1_Ingress</title>
<polygon fill="aquamarine" stroke="black" points="1370,-310 1230,-310 1230,-306 1226,-306 1226,-302 1230,-302 1230,-282 1226,-282 1226,-278 1230,-278 1230,-274 1370,-274 1370,-310"/>
<polyline fill="none" stroke="black" points="1230,-306 1234,-306 1234,-302 1230,-302 "/>
<polyline fill="none" stroke="black" points="1230,-282 1234,-282 1234,-278 1230,-278 "/>
<text text-anchor="middle" x="1300" y="-288.3" font-family="Times,serif" font-size="14.00">Cluster 1 Ingress</text>
</g>
<!-- Cluster2_Ingress -->
<g id="node23" class="node">
<title>Cluster2_Ingress</title>
<polygon fill="darkorange" stroke="black" points="1370,-204 1230,-204 1230,-200 1226,-200 1226,-196 1230,-196 1230,-176 1226,-176 1226,-172 1230,-172 1230,-168 1370,-168 1370,-204"/>
<polyline fill="none" stroke="black" points="1230,-200 1234,-200 1234,-196 1230,-196 "/>
<polyline fill="none" stroke="black" points="1230,-176 1234,-176 1234,-172 1230,-172 "/>
<text text-anchor="middle" x="1300" y="-182.3" font-family="Times,serif" font-size="14.00">Cluster 2 Ingress</text>
</g>
<!-- Cluster1_Ingress&#45;&gt;Cluster2_Ingress -->
<!-- Cluster1_CP1 -->
<g id="node25" class="node">
<title>Cluster1_CP1</title>
<polygon fill="aquamarine" stroke="black" points="1126,-204 998,-204 998,-200 994,-200 994,-196 998,-196 998,-176 994,-176 994,-172 998,-172 998,-168 1126,-168 1126,-204"/>
<polyline fill="none" stroke="black" points="998,-200 1002,-200 1002,-196 998,-196 "/>
<polyline fill="none" stroke="black" points="998,-176 1002,-176 1002,-172 998,-172 "/>
<text text-anchor="middle" x="1062" y="-182.3" font-family="Times,serif" font-size="14.00">Control Plane 1</text>
</g>
<!-- Cluster1_Ingress&#45;&gt;Cluster1_CP1 -->
<g id="edge27" class="edge">
<title>Cluster1_Ingress&#45;&gt;Cluster1_CP1</title>
<path fill="none" stroke="red" stroke-width="2" d="M1229.92,-274.72C1228.61,-274.47 1227.3,-274.23 1226,-274 1198.65,-269.11 1189.66,-276.66 1164,-266 1133.82,-253.47 1104.91,-229.56 1085.63,-211.31"/>
<polygon fill="red" stroke="red" stroke-width="2" points="1087.84,-208.59 1078.22,-204.14 1082.97,-213.61 1087.84,-208.59"/>
</g>
<!-- Cluster1_CP2 -->
<g id="node26" class="node">
<title>Cluster1_CP2</title>
<polygon fill="aquamarine" stroke="black" points="1126,-132 998,-132 998,-128 994,-128 994,-124 998,-124 998,-104 994,-104 994,-100 998,-100 998,-96 1126,-96 1126,-132"/>
<polyline fill="none" stroke="black" points="998,-128 1002,-128 1002,-124 998,-124 "/>
<polyline fill="none" stroke="black" points="998,-104 1002,-104 1002,-100 998,-100 "/>
<text text-anchor="middle" x="1062" y="-110.3" font-family="Times,serif" font-size="14.00">Control Plane 2</text>
</g>
<!-- Cluster1_Ingress&#45;&gt;Cluster1_CP2 -->
<g id="edge28" class="edge">
<title>Cluster1_Ingress&#45;&gt;Cluster1_CP2</title>
<path fill="none" stroke="red" stroke-width="2" d="M1234.62,-273.97C1229.83,-271.63 1225.23,-268.99 1221,-266 1169.18,-229.36 1183.67,-192.73 1135,-152 1128.27,-146.37 1120.54,-141.3 1112.68,-136.85"/>
<polygon fill="red" stroke="red" stroke-width="2" points="1114.27,-133.73 1103.8,-132.1 1110.97,-139.9 1114.27,-133.73"/>
</g>
<!-- Cluster1_CP3 -->
<g id="node29" class="node">
<title>Cluster1_CP3</title>
<polygon fill="aquamarine" stroke="black" points="1538,-204 1410,-204 1410,-200 1406,-200 1406,-196 1410,-196 1410,-176 1406,-176 1406,-172 1410,-172 1410,-168 1538,-168 1538,-204"/>
<polyline fill="none" stroke="black" points="1410,-200 1414,-200 1414,-196 1410,-196 "/>
<polyline fill="none" stroke="black" points="1410,-176 1414,-176 1414,-172 1410,-172 "/>
<text text-anchor="middle" x="1474" y="-182.3" font-family="Times,serif" font-size="14.00">Control Plane 3</text>
</g>
<!-- Cluster1_Ingress&#45;&gt;Cluster1_CP3 -->
<g id="edge29" class="edge">
<title>Cluster1_Ingress&#45;&gt;Cluster1_CP3</title>
<path fill="none" stroke="red" stroke-width="2" d="M1365.05,-273.94C1370.92,-271.58 1376.65,-268.94 1382,-266 1408.08,-251.66 1433.41,-229.07 1450.86,-211.71"/>
<polygon fill="red" stroke="red" stroke-width="2" points="1453.78,-213.74 1458.3,-204.16 1448.79,-208.83 1453.78,-213.74"/>
</g>
<!-- Cluster2_CP1 -->
<g id="node27" class="node">
<title>Cluster2_CP1</title>
<polygon fill="darkorange" stroke="black" points="1126,-60 998,-60 998,-56 994,-56 994,-52 998,-52 998,-32 994,-32 994,-28 998,-28 998,-24 1126,-24 1126,-60"/>
<polyline fill="none" stroke="black" points="998,-56 1002,-56 1002,-52 998,-52 "/>
<polyline fill="none" stroke="black" points="998,-32 1002,-32 1002,-28 998,-28 "/>
<text text-anchor="middle" x="1062" y="-38.3" font-family="Times,serif" font-size="14.00">Control Plane 1</text>
</g>
<!-- Cluster2_Ingress&#45;&gt;Cluster2_CP1 -->
<g id="edge30" class="edge">
<title>Cluster2_Ingress&#45;&gt;Cluster2_CP1</title>
<path fill="none" stroke="red" stroke-width="2" d="M1271.29,-167.87C1228.32,-142.23 1147.23,-93.85 1099.59,-65.43"/>
<polygon fill="red" stroke="red" stroke-width="2" points="1101.19,-62.31 1090.81,-60.19 1097.6,-68.32 1101.19,-62.31"/>
</g>
<!-- Cluster2_CP2 -->
<g id="node30" class="node">
<title>Cluster2_CP2</title>
<polygon fill="darkorange" stroke="black" points="1538,-132 1410,-132 1410,-128 1406,-128 1406,-124 1410,-124 1410,-104 1406,-104 1406,-100 1410,-100 1410,-96 1538,-96 1538,-132"/>
<polyline fill="none" stroke="black" points="1410,-128 1414,-128 1414,-124 1410,-124 "/>
<polyline fill="none" stroke="black" points="1410,-104 1414,-104 1414,-100 1410,-100 "/>
<text text-anchor="middle" x="1474" y="-110.3" font-family="Times,serif" font-size="14.00">Control Plane 2</text>
</g>
<!-- Cluster2_Ingress&#45;&gt;Cluster2_CP2 -->
<g id="edge31" class="edge">
<title>Cluster2_Ingress&#45;&gt;Cluster2_CP2</title>
<path fill="none" stroke="red" stroke-width="2" d="M1342.57,-167.88C1366.56,-158.22 1396.73,-146.09 1422.1,-135.88"/>
<polygon fill="red" stroke="red" stroke-width="2" points="1423.6,-139.05 1431.57,-132.07 1420.99,-132.55 1423.6,-139.05"/>
</g>
<!-- Cluster2_CP3 -->
<g id="node31" class="node">
<title>Cluster2_CP3</title>
<polygon fill="darkorange" stroke="black" points="1538,-60 1410,-60 1410,-56 1406,-56 1406,-52 1410,-52 1410,-32 1406,-32 1406,-28 1410,-28 1410,-24 1538,-24 1538,-60"/>
<polyline fill="none" stroke="black" points="1410,-56 1414,-56 1414,-52 1410,-52 "/>
<polyline fill="none" stroke="black" points="1410,-32 1414,-32 1414,-28 1410,-28 "/>
<text text-anchor="middle" x="1474" y="-38.3" font-family="Times,serif" font-size="14.00">Control Plane 3</text>
</g>
<!-- Cluster2_Ingress&#45;&gt;Cluster2_CP3 -->
<g id="edge32" class="edge">
<title>Cluster2_Ingress&#45;&gt;Cluster2_CP3</title>
<path fill="none" stroke="red" stroke-width="2" d="M1315.81,-167.72C1334.9,-147.37 1368.51,-113.15 1401,-88 1411.4,-79.95 1423.32,-72.09 1434.47,-65.25"/>
<polygon fill="red" stroke="red" stroke-width="2" points="1436.44,-68.16 1443.21,-60.01 1432.83,-62.16 1436.44,-68.16"/>
</g>
<!-- Cluster1_CP1&#45;&gt;Cluster1_CP2 -->
<!-- Cluster1_CP2&#45;&gt;Cluster2_CP1 -->
<!-- Cluster1_CP3&#45;&gt;Cluster2_CP2 -->
<!-- Cluster2_CP2&#45;&gt;Cluster2_CP3 -->
<!-- User -->
<g id="node32" class="node">
<title>User</title>
<ellipse fill="none" stroke="black" cx="1371" cy="-398" rx="33.29" ry="18"/>
<text text-anchor="middle" x="1371" y="-394.3" font-family="Times,serif" font-size="14.00">User</text>
</g>
<!-- User&#45;&gt;Cluster1_Ingress -->
<g id="edge33" class="edge">
<title>User&#45;&gt;Cluster1_Ingress</title>
<path fill="none" stroke="blue" stroke-width="2" d="M1359.91,-380.75C1348.54,-364.1 1330.71,-337.99 1317.45,-318.57"/>
<polygon fill="blue" stroke="blue" stroke-width="2" points="1320.25,-316.46 1311.72,-310.17 1314.47,-320.41 1320.25,-316.46"/>
</g>
<!-- User&#45;&gt;Cluster2_Ingress -->
<g id="edge34" class="edge">
<title>User&#45;&gt;Cluster2_Ingress</title>
<path fill="none" stroke="blue" stroke-width="2" d="M1377.15,-380.23C1377.91,-377.51 1378.58,-374.7 1379,-372 1385.72,-328.97 1394.69,-314.63 1379,-274 1369.31,-248.91 1348.65,-226.6 1330.89,-210.85"/>
<polygon fill="blue" stroke="blue" stroke-width="2" points="1332.86,-207.92 1322.99,-204.09 1328.31,-213.25 1332.86,-207.92"/>
</g>
</g>
</svg>
